<svg xmlns="http://www.w3.org/2000/svg" width="100%" viewBox="0 0 1440 860" fill="none" class="tunnelsvg" style="
    /* display: none; */
"><g clip-path="url(#clip0_8473_224)"><path d="M720.04 -421C723.27 103.07 723.27 650.55 720.7 1174.71L720.04 1281.09L719.38 1174.71C716.82 650.53 716.82 103.09 720.04 -421Z" fill="#ffffff"></path><path d="M675.5 -419.83C706.15 103.35 734.8 650.08 759.67 1173.65L764.58 1279.92L758.35 1173.72C728.35 650.39 699.71 103.71 675.5 -419.83Z" fill="#ffffff"></path><path d="M631.09 -416.34C689.08 104.52 746.31 649 798.55 1170.56L809.01 1276.43L797.23 1170.7C739.89 649.66 682.67 105.22 631.09 -416.33V-416.34Z" fill="#ffffff"></path><path d="M586.91 -410.52C672.08 106.59 757.72 647.33 837.19 1165.44L853.18 1270.61L835.88 1165.64C751.35 648.31 665.71 107.62 586.91 -410.52Z" fill="#ffffff"></path><path d="M543.1 -402.4C655.22 109.55 769.04 645.06 875.51 1158.3L896.98 1262.49L874.21 1158.57C762.72 646.37 648.9 110.9 543.09 -402.4H543.1Z" fill="#ffffff"></path><path d="M499.78 -392C638.53 113.38 780.23 642.2 913.42 1149.16L940.31 1252.09L912.14 1149.51C773.99 643.85 632.31 115.07 499.78 -392Z" fill="#ffffff"></path><path d="M457.06 -379.35C622.07 118.07 791.26 638.76 950.79 1138.05L983.03 1239.43L949.53 1138.46C785.11 640.72 615.94 120.08 457.06 -379.35Z" fill="#ffffff"></path><path d="M415.06 -364.47C605.88 123.63 802.08 634.75 987.53 1125.01L1025.03 1224.56L986.29 1125.48C796.04 637.03 599.86 125.96 415.06 -364.48V-364.47Z" fill="#ffffff"></path><path d="M373.89 -347.42C590 130.03 812.68 630.18 1023.53 1110.06L1066.19 1207.51L1022.32 1110.6C806.77 632.78 584.11 132.67 373.89 -347.42Z" fill="#ffffff"></path><path d="M333.68 -328.24C574.48 137.24 823.03 625.05 1058.71 1093.24L1106.42 1188.33L1057.53 1093.85C817.27 627.96 568.74 140.2 333.68 -328.24Z" fill="#ffffff"></path><path d="M294.52 -306.98C559.35 145.26 833.09 619.4 1092.95 1074.61L1145.57 1167.07L1091.81 1075.27C827.49 622.6 553.77 148.51 294.52 -306.98Z" fill="#ffffff"></path><path d="M256.53 -283.7C544.66 154.06 842.84 613.22 1126.17 1054.21L1183.55 1143.79L1125.06 1054.93C837.42 616.71 539.27 157.59 256.53 -283.7Z" fill="#ffffff"></path><path d="M219.81 -258.46C530.46 163.62 852.26 606.54 1158.28 1032.1L1220.27 1118.55L1157.21 1032.88C847.03 610.31 525.25 167.43 219.81 -258.46Z" fill="#ffffff"></path><path d="M184.46 -231.34C516.77 173.91 861.32 599.38 1189.19 1008.34L1255.62 1091.43L1188.16 1009.17C856.29 603.42 511.78 177.98 184.46 -231.34Z" fill="#ffffff"></path><path d="M150.58 -202.4C503.65 184.9 869.99 591.76 1218.81 983L1289.5 1062.5L1217.83 983.89C865.17 596.05 498.87 189.23 150.58 -202.4Z" fill="#ffffff"></path><path d="M118.26 -171.73C491.11 196.56 878.24 583.69 1247.06 956.14L1321.81 1031.83L1246.12 957.08C873.66 588.23 486.57 201.13 118.26 -171.73Z" fill="#ffffff"></path><path d="M87.59 -139.42C479.21 208.85 886.07 575.19 1273.87 927.82L1352.48 999.5L1272.98 928.81C881.73 579.97 474.91 213.67 87.59 -139.42Z" fill="#ffffff"></path><path d="M58.66 -105.54C467.97 221.76 893.44 566.3 1299.17 898.16L1381.43 965.62L1298.34 899.19C889.36 571.3 463.92 226.79 58.66 -105.54Z" fill="#ffffff"></path><path d="M31.53 -70.1899C457.41 235.24 900.33 557.04 1322.87 867.21L1408.54 930.27L1322.09 868.28C896.52 562.25 453.64 240.48 31.53 -70.1899Z" fill="#ffffff"></path><path d="M6.30005 -33.4702C447.58 249.25 906.73 547.43 1344.93 835.06L1433.79 893.55L1344.21 836.17C903.19 552.83 444.08 254.68 6.30005 -33.4702Z" fill="#ffffff"></path><path d="M-16.98 4.52002C438.49 263.76 912.62 537.5 1365.27 801.8L1457.07 855.56L1364.61 802.94C909.37 543.08 435.28 269.36 -16.98 4.52002Z" fill="#ffffff"></path><path d="M-38.24 43.6799C430.17 278.73 917.98 527.28 1383.85 767.52L1478.33 816.41L1383.24 768.7C915.02 533.01 427.26 284.48 -38.24 43.6699V43.6799Z" fill="#ffffff"></path><path d="M-57.42 83.8901C422.65 294.1 922.8 516.78 1400.6 732.32L1497.51 776.19L1400.06 733.53C920.15 522.67 420.05 300.01 -57.42 83.8901Z" fill="#ffffff"></path><path d="M-74.47 125.06C415.95 309.86 927.06 506.06 1415.49 696.29L1514.57 735.03L1415.02 697.53C924.73 512.07 413.66 315.89 -74.46 125.06H-74.47Z" fill="#ffffff"></path><path d="M-89.35 167.06C410.07 325.94 930.75 495.12 1428.46 659.53L1529.43 693.03L1428.05 660.79C928.73 501.25 408.09 332.08 -89.35 167.06Z" fill="#ffffff"></path><path d="M-102 209.78C405.05 342.3 933.87 484 1439.51 622.14L1542.09 650.31L1439.16 623.42C932.17 490.23 403.4 348.54 -102 209.78Z" fill="#ffffff"></path><path d="M-112.4 253.1C400.89 358.9 936.4 472.73 1448.57 584.22L1552.49 606.99L1448.3 585.52C935.04 479.04 399.57 365.23 -112.4 253.11V253.1Z" fill="#ffffff"></path><path d="M-120.52 296.91C397.6 375.71 938.34 461.35 1455.64 545.88L1560.61 563.18L1455.44 547.19C937.31 467.72 396.62 382.08 -120.52 296.91Z" fill="#ffffff"></path><path d="M-126.34 341.09C395.19 392.66 939.68 449.89 1460.69 507.23L1566.42 519.01L1460.55 508.55C938.97 456.31 394.54 399.08 -126.35 341.09H-126.34Z" fill="#ffffff"></path><path d="M-129.83 385.5C393.69 409.71 940.42 438.36 1463.72 468.35L1569.92 474.58L1463.65 469.67C940.05 444.8 393.37 416.15 -129.84 385.5H-129.83Z" fill="#ffffff"></path><path d="M-131 430.04C393.07 426.81 940.55 426.81 1464.71 429.38L1571.09 430.04L1464.71 430.7C940.53 433.27 393.09 433.26 -131 430.04Z" fill="#ffffff"></path><path d="M-129.83 474.58C393.35 443.93 940.08 415.28 1463.66 390.41L1569.93 385.5L1463.73 391.73C940.4 421.72 393.72 450.37 -129.82 474.58H-129.83Z" fill="#ffffff"></path><path d="M-126.34 519C394.52 461.01 939 403.78 1460.56 351.54L1566.43 341.08L1460.7 352.86C939.66 410.2 395.22 467.42 -126.33 519H-126.34Z" fill="#ffffff"></path><path d="M-120.52 563.18C396.59 478.01 937.33 392.36 1455.44 312.9L1560.61 296.91L1455.64 314.21C938.31 398.74 397.62 484.38 -120.52 563.18Z" fill="#ffffff"></path><path d="M-112.4 606.99C399.55 494.87 935.06 381.05 1448.3 274.58L1552.49 253.11L1448.57 275.88C936.37 387.37 400.9 501.19 -112.4 607V606.99Z" fill="#ffffff"></path><path d="M-102 650.31C403.38 511.55 932.2 369.85 1439.16 236.67L1542.09 209.78L1439.51 237.95C933.85 376.1 405.07 517.78 -102 650.31Z" fill="#ffffff"></path><path d="M-89.35 693.03C408.07 528.02 928.76 358.83 1428.05 199.3L1529.43 167.06L1428.46 200.56C930.72 364.98 410.08 534.15 -89.35 693.03Z" fill="#ffffff"></path><path d="M-74.47 735.03C413.63 544.21 924.75 348.01 1415.01 162.56L1514.56 125.06L1415.48 163.8C927.03 354.05 415.96 550.23 -74.48 735.03H-74.47Z" fill="#ffffff"></path><path d="M-57.42 776.19C420.03 560.08 920.18 337.4 1400.06 126.55L1497.51 83.8901L1400.6 127.76C922.78 343.31 422.67 565.97 -57.42 776.19Z" fill="#ffffff"></path><path d="M-38.24 816.41C427.24 575.61 915.05 327.06 1383.24 91.3802L1478.33 43.6802L1383.85 92.5702C917.96 332.83 430.2 581.36 -38.24 816.42V816.41Z" fill="#ffffff"></path><path d="M-16.98 855.57C435.26 590.74 909.4 317 1364.61 57.14L1457.07 4.52002L1365.27 58.28C912.6 322.59 438.5 596.31 -16.98 855.56V855.57Z" fill="#ffffff"></path><path d="M6.30005 893.56C444.06 605.43 903.22 307.25 1344.21 23.92L1433.79 -33.46L1344.93 25.03C906.71 312.67 447.59 610.82 6.30005 893.56Z" fill="#ffffff"></path><path d="M31.53 930.27C453.61 619.62 896.53 297.82 1322.09 -8.19995L1408.54 -70.1899L1322.87 -7.12994C900.3 303.05 457.42 624.82 31.53 930.27Z" fill="#ffffff"></path><path d="M58.66 965.62C463.91 633.31 889.38 288.76 1298.34 -39.11L1381.43 -105.54L1299.17 -38.08C893.42 293.79 467.98 638.3 58.66 965.62Z" fill="#ffffff"></path><path d="M87.59 999.5C474.89 646.43 881.75 280.09 1272.99 -68.7299L1352.49 -139.42L1273.88 -67.7499C886.05 284.9 479.23 651.21 87.6 999.49L87.59 999.5Z" fill="#ffffff"></path><path d="M118.26 1031.82C486.55 658.97 873.68 271.84 1246.13 -96.98L1321.82 -171.73L1247.07 -96.04C878.23 276.43 491.14 663.52 118.27 1031.83L118.26 1031.82Z" fill="#ffffff"></path><path d="M150.58 1062.49C498.85 670.87 865.19 264.01 1217.82 -123.79L1289.5 -202.4L1218.81 -122.9C869.97 268.36 503.66 675.18 150.58 1062.5V1062.49Z" fill="#ffffff"></path><path d="M184.46 1091.43C511.76 682.12 856.3 256.65 1188.16 -149.08L1255.62 -231.34L1189.19 -148.25C861.3 260.73 516.79 686.17 184.46 1091.43Z" fill="#ffffff"></path><path d="M219.81 1118.55C525.24 692.67 847.04 249.75 1157.21 -172.79L1220.28 -258.46L1158.29 -172.01C852.26 253.57 530.48 696.45 219.82 1118.55H219.81Z" fill="#ffffff"></path><path d="M256.53 1143.79C539.25 702.51 837.43 243.35 1125.06 -194.84L1183.55 -283.7L1126.17 -194.12C842.83 246.9 544.68 706.01 256.53 1143.79Z" fill="#ffffff"></path><path d="M294.52 1167.07C553.76 711.6 827.5 237.47 1091.8 -215.18L1145.56 -306.98L1092.94 -214.52C833.07 240.72 559.35 714.81 294.51 1167.07H294.52Z" fill="#ffffff"></path><path d="M333.68 1188.33C568.73 719.92 817.28 232.11 1057.53 -233.76L1106.42 -328.24L1058.71 -233.15C823.02 235.07 574.49 722.83 333.68 1188.33Z" fill="#ffffff"></path><path d="M373.89 1207.51C584.1 727.44 806.78 227.29 1022.32 -250.51L1066.19 -347.42L1023.53 -249.97C812.67 229.94 590.01 730.04 373.89 1207.51Z" fill="#ffffff"></path><path d="M415.06 1224.56C599.86 734.14 796.06 223.03 986.29 -265.4L1025.03 -364.48L987.53 -264.93C802.07 225.36 605.89 736.43 415.06 1224.55V1224.56Z" fill="#ffffff"></path><path d="M457.06 1239.43C615.94 740.01 785.12 219.33 949.53 -278.38L983.03 -379.35L950.79 -277.97C791.25 221.35 622.08 741.99 457.06 1239.43Z" fill="#ffffff"></path><path d="M499.78 1252.09C632.3 745.04 774 216.22 912.14 -289.42L940.31 -392L913.42 -289.07C780.23 217.92 638.54 746.7 499.78 1252.09Z" fill="#ffffff"></path><path d="M543.1 1262.49C648.9 749.2 762.73 213.69 874.22 -298.48L896.99 -402.4L875.52 -298.21C769.04 215.05 655.23 750.52 543.11 1262.49H543.1Z" fill="#ffffff"></path><path d="M586.91 1270.61C665.71 752.49 751.35 211.75 835.88 -305.55L853.18 -410.52L837.19 -305.35C757.72 212.78 672.08 753.47 586.91 1270.61Z" fill="#ffffff"></path><path d="M631.09 1276.43C682.66 754.9 739.89 210.41 797.23 -310.6L809.01 -416.33L798.55 -310.46C746.31 211.12 689.08 755.55 631.09 1276.44V1276.43Z" fill="#ffffff"></path><path d="M675.5 1279.92C699.71 756.4 728.36 209.67 758.35 -313.63L764.58 -419.83L759.67 -313.56C734.8 210.04 706.15 756.72 675.5 1279.92Z" fill="#ffffff"></path></g><defs><clipPath id="clip0_8473_224"><rect width="1702.09" height="1702.09" fill="#ffffff" transform="translate(-131 -421)"></rect></clipPath></defs></svg>